<?xml version="1.0" standalone="no"?>
<!DOCTYPE svg PUBLIC "-//W3C//DTD SVG 20010904//EN"
 "http://www.w3.org/TR/2001/REC-SVG-20010904/DTD/svg10.dtd">
<svg version="1.0" xmlns="http://www.w3.org/2000/svg"
 width="200.000000pt" height="200.000000pt" viewBox="0 0 200.000000 200.000000"
 preserveAspectRatio="xMidYMid meet">
<metadata>
Created by potrace 1.14, written by Peter Selinger 2001-2017
</metadata>
<g transform="translate(0.000000,200.000000) scale(0.100000,-0.100000)"
fill="#000000" stroke="none">
<path d="M766 1963 c-3 -21 -6 -56 -6 -79 0 -39 -2 -41 -42 -54 -24 -7 -64
-23 -90 -36 -26 -13 -51 -24 -55 -24 -5 0 -32 21 -62 47 l-53 46 -161 -161
-160 -161 29 -37 c72 -91 68 -77 41 -131 -14 -26 -30 -67 -37 -90 -14 -46 -31
-53 -121 -53 l-49 0 0 -230 0 -230 49 0 c90 0 107 -7 121 -53 7 -23 23 -64 37
-90 l24 -49 -28 -35 c-15 -20 -37 -47 -47 -60 l-19 -25 161 -161 160 -160 53
46 c30 26 57 47 62 47 4 0 29 -11 55 -24 26 -13 66 -29 90 -36 40 -13 42 -15
42 -54 0 -23 3 -58 6 -79 l7 -37 143 0 144 0 0 120 0 120 124 0 c114 0 125 -2
131 -19 11 -35 80 -88 123 -96 143 -24 256 119 193 243 -36 70 -88 102 -164
102 -50 0 -94 -25 -133 -74 l-29 -36 -122 0 -123 0 0 55 0 55 -52 0 c-324 3
-580 297 -529 608 42 257 267 450 529 452 l52 0 0 55 0 55 123 0 122 0 29 -36
c54 -68 129 -91 203 -63 60 23 113 99 113 164 0 146 -182 226 -291 128 -21
-19 -41 -43 -44 -54 -6 -17 -17 -19 -131 -19 l-124 0 0 120 0 120 -144 0 -143
0 -7 -37z"/>
<path d="M1760 1633 c-58 -22 -109 -95 -110 -156 0 -26 -19 -36 -385 -219
l-385 -193 0 -65 0 -65 385 -193 c366 -183 385 -193 385 -219 1 -43 34 -108
70 -133 34 -24 110 -37 154 -26 32 8 93 61 112 97 29 57 9 155 -43 201 -26 24
-87 48 -121 48 -16 0 -50 -11 -77 -24 l-48 -25 -276 139 -276 139 147 0 146 1
21 -35 c30 -51 75 -75 142 -75 73 0 114 22 150 78 40 63 40 121 0 184 -36 56
-77 78 -150 78 -67 0 -112 -24 -142 -75 l-21 -35 -146 1 -147 0 276 139 276
139 48 -25 c27 -13 61 -24 77 -24 34 0 95 24 121 48 49 44 72 144 46 195 -17
32 -60 77 -91 93 -27 14 -109 18 -138 7z"/>
</g>
</svg>
