<svg xmlns="http://www.w3.org/2000/svg" version="1.1" xlink="http://www.w3.org/1999/xlink" xmlns:svgjs="http://svgjs.com/svgjs" width="100%" height="100%" viewBox="2.0999984741210938 14.19999885559082 96.00000762939453 71.69999694824219"><g fill="#ffffff"><path d="M13.2 69.1c-.5-2.6-2.7-4.5-5.4-4.5-3.1 0-5.6 2.5-5.6 5.6 0 3.1 2.5 5.6 5.6 5.6 2.7 0 5-1.9 5.4-4.5h12l8.5-10.1h32.9l8.5 10.1h12c.5 2.6 2.7 4.5 5.4 4.5 3.1 0 5.6-2.5 5.6-5.6 0-3.1-2.5-5.6-5.6-5.6-2.7 0-5 1.9-5.4 4.5h-11L67.4 59H32.6l-8.5 10.1H13.2zm79.1-2.4c1.9 0 3.5 1.5 3.5 3.5 0 1.9-1.5 3.5-3.5 3.5s-3.5-1.5-3.5-3.5 1.6-3.5 3.5-3.5zM7.7 73.6c-1.9 0-3.5-1.5-3.5-3.5 0-1.9 1.5-3.5 3.5-3.5s3.5 1.5 3.5 3.5c0 1.9-1.6 3.5-3.5 3.5zm79.1-44.8h-12l-8.5 10.1H33.6l-8.5-10.1h-12c-.5-2.6-2.7-4.5-5.4-4.5-3.1 0-5.6 2.5-5.6 5.6s2.5 5.6 5.6 5.6c2.7 0 5-1.9 5.4-4.5h11l8.5 10h34.8l8.5-10.1h11c.5 2.6 2.7 4.5 5.4 4.5 3.1 0 5.6-2.5 5.6-5.6s-2.5-5.6-5.6-5.6c-2.7.1-5 2.1-5.5 4.6zM7.7 33.3c-1.9 0-3.5-1.5-3.5-3.5s1.5-3.5 3.5-3.5 3.5 1.5 3.5 3.5-1.6 3.5-3.5 3.5zm88-3.4c0 1.9-1.5 3.5-3.5 3.5s-3.5-1.5-3.5-3.5 1.5-3.5 3.5-3.5 3.5 1.6 3.5 3.5z"></path><path d="M61.4 19.8c0 1.2.4 2.4 1.1 3.3L58 28.8H42.1l-4.5-5.7c.7-.9 1.1-2.1 1.1-3.3 0-3.1-2.5-5.6-5.6-5.6-3.1 0-5.6 2.5-5.6 5.6s2.5 5.6 5.6 5.6c1.1 0 2-.3 2.9-.8l5.1 6.4H59l5.1-6.4c.8.5 1.8.8 2.9.8 3.1 0 5.6-2.5 5.6-5.6s-2.5-5.6-5.6-5.6-5.6 2.5-5.6 5.6zm-28.3 3.4c-1.9 0-3.5-1.5-3.5-3.5s1.5-3.5 3.5-3.5c1.9 0 3.5 1.5 3.5 3.5 0 .7-.2 1.3-.5 1.8l-1.4 1.1.1.1c-.6.4-1.1.5-1.7.5zm37.3-3.4c0 1.9-1.5 3.5-3.5 3.5-.6 0-1.1-.1-1.6-.4l.1-.1-1.4-1.2c-.3-.5-.5-1.2-.5-1.8 0-1.9 1.5-3.5 3.5-3.5 1.8 0 3.4 1.6 3.4 3.5zm-6.5 55.8L59 69.1H41l-4.9 6.5c-.9-.6-1.9-.9-3-.9-3.1 0-5.6 2.5-5.6 5.6s2.5 5.6 5.6 5.6c3.1 0 5.6-2.5 5.6-5.6 0-1.2-.4-2.3-1-3.2l4.4-5.9H58l4.4 5.9c-.6.9-1 2-1 3.2 0 3.1 2.5 5.6 5.6 5.6s5.6-2.5 5.6-5.6-2.5-5.6-5.6-5.6c-1.2 0-2.2.3-3.1.9zm-27.4 4.6c0 1.9-1.5 3.5-3.5 3.5-1.9 0-3.5-1.5-3.5-3.5s1.5-3.5 3.5-3.5c2 .1 3.5 1.6 3.5 3.5zm33.9 0c0 1.9-1.5 3.5-3.5 3.5-1.9 0-3.5-1.5-3.5-3.5s1.5-3.5 3.5-3.5c1.9.1 3.5 1.6 3.5 3.5zM24.6 44.4c-3.1 0-5.6 2.5-5.6 5.6s2.5 5.6 5.6 5.6c2.7 0 5-1.9 5.4-4.5h39.9c.5 2.6 2.7 4.5 5.4 4.5 3.1 0 5.6-2.5 5.6-5.6s-2.5-5.6-5.6-5.6c-2.7 0-5 1.9-5.4 4.5H30.1c-.5-2.5-2.8-4.5-5.5-4.5zm0 9.1c-1.9 0-3.5-1.5-3.5-3.5 0-1.9 1.5-3.5 3.5-3.5s3.5 1.5 3.5 3.5c0 1.9-1.6 3.5-3.5 3.5zm50.8-7c1.9 0 3.5 1.5 3.5 3.5 0 1.9-1.5 3.5-3.5 3.5S71.9 52 71.9 50c0-1.9 1.6-3.5 3.5-3.5z"></path></g></svg>